# xmcd CD database file
#
# Track frame offsets:
#	150
#	21687
#	39854
#	52816
#	76143
#	93252
#	113247
#	134916
#	150356
#	171225
#	186002
#	206004
#	236211
#
# Disc length: 3331 seconds
#
# Revision: 5
# Processed by: cddbd v1.4PL0 Copyright (c) Steve Scherf et al.
# Submitted via: CDex 1.50beta8
#
DISCID=a90d010d
DTITLE=Joaquín Sabina - Esta boca es mía
DYEAR=1994
DGENRE=
TTITLE0=Esta noche contigo
TTITLE1=Por el bulevar de los sueños rotos
TTITLE2=Incluso en estos tiempos
TTITLE3=Siete crisantemos
TTITLE4=Besos con sal
TTITLE5=Ruido
TTITLE6=El blues de lo que pasa en mi escalera
TTITLE7=Como un explorador
TTITLE8=Mujeres fatal
TTITLE9=Ganas de ...
TTITLE10=La casa por la ventana
TTITLE11=Mas de cien mentiras
TTITLE12=Esta boca es mia
EXTD=YEAR: 1994
EXTT0=
EXTT1=
EXTT2=
EXTT3=
EXTT4=
EXTT5=
EXTT6=
EXTT7=
EXTT8=
EXTT9=
EXTT10=
EXTT11=
EXTT12=
PLAYORDER=
